<?xml version="1.0" encoding="UTF-8"?>
<!DOCTYPE svg PUBLIC "-//W3C//DTD SVG 1.1//EN" "http://www.w3.org/Graphics/SVG/1.1/DTD/svg11.dtd">
<svg xmlns="http://www.w3.org/2000/svg" xmlns:xlink="http://www.w3.org/1999/xlink" version="1.1" width="791px" height="631px" viewBox="-0.5 -0.5 791 631"><defs><clipPath id="mx-clip-0-30-40-30-0"><rect x="0" y="30" width="40" height="30"/></clipPath><clipPath id="mx-clip-46-30-134-30-0"><rect x="46" y="30" width="134" height="30"/></clipPath><clipPath id="mx-clip-0-60-40-30-0"><rect x="0" y="60" width="40" height="30"/></clipPath><clipPath id="mx-clip-46-60-134-30-0"><rect x="46" y="60" width="134" height="30"/></clipPath><clipPath id="mx-clip-0-90-40-30-0"><rect x="0" y="90" width="40" height="30"/></clipPath><clipPath id="mx-clip-46-90-134-30-0"><rect x="46" y="90" width="134" height="30"/></clipPath><clipPath id="mx-clip-0-120-40-30-0"><rect x="0" y="120" width="40" height="30"/></clipPath><clipPath id="mx-clip-46-120-134-30-0"><rect x="46" y="120" width="134" height="30"/></clipPath><clipPath id="mx-clip-230-300-40-30-0"><rect x="230" y="300" width="40" height="30"/></clipPath><clipPath id="mx-clip-276-300-184-30-0"><rect x="276" y="300" width="184" height="30"/></clipPath><clipPath id="mx-clip-230-330-40-30-0"><rect x="230" y="330" width="40" height="30"/></clipPath><clipPath id="mx-clip-276-330-184-30-0"><rect x="276" y="330" width="184" height="30"/></clipPath><clipPath id="mx-clip-230-360-40-30-0"><rect x="230" y="360" width="40" height="30"/></clipPath><clipPath id="mx-clip-276-360-184-30-0"><rect x="276" y="360" width="184" height="30"/></clipPath><clipPath id="mx-clip-276-390-184-30-0"><rect x="276" y="390" width="184" height="30"/></clipPath><clipPath id="mx-clip-230-420-40-30-0"><rect x="230" y="420" width="40" height="30"/></clipPath><clipPath id="mx-clip-276-420-184-30-0"><rect x="276" y="420" width="184" height="30"/></clipPath><clipPath id="mx-clip-276-450-184-30-0"><rect x="276" y="450" width="184" height="30"/></clipPath><clipPath id="mx-clip-610-530-40-30-0"><rect x="610" y="530" width="40" height="30"/></clipPath><clipPath id="mx-clip-656-530-134-30-0"><rect x="656" y="530" width="134" height="30"/></clipPath><clipPath id="mx-clip-610-560-40-30-0"><rect x="610" y="560" width="40" height="30"/></clipPath><clipPath id="mx-clip-656-560-134-30-0"><rect x="656" y="560" width="134" height="30"/></clipPath><clipPath id="mx-clip-610-590-40-30-0"><rect x="610" y="590" width="40" height="30"/></clipPath><clipPath id="mx-clip-656-590-134-30-0"><rect x="656" y="590" width="134" height="30"/></clipPath><clipPath id="mx-clip-520-210-40-30-0"><rect x="520" y="210" width="40" height="30"/></clipPath><clipPath id="mx-clip-566-210-174-30-0"><rect x="566" y="210" width="174" height="30"/></clipPath><clipPath id="mx-clip-520-240-40-30-0"><rect x="520" y="240" width="40" height="30"/></clipPath><clipPath id="mx-clip-566-240-174-30-0"><rect x="566" y="240" width="174" height="30"/></clipPath><clipPath id="mx-clip-520-270-40-30-0"><rect x="520" y="270" width="40" height="30"/></clipPath><clipPath id="mx-clip-566-270-174-30-0"><rect x="566" y="270" width="174" height="30"/></clipPath></defs><g><path d="M 0 30 L 0 0 L 180 0 L 180 30" fill="#ffffff" stroke="#000000" stroke-miterlimit="10" pointer-events="all"/><path d="M 0 30 L 0 160 L 180 160 L 180 30" fill="none" stroke="#000000" stroke-miterlimit="10" pointer-events="none"/><path d="M 0 30 L 180 30" fill="none" stroke="#000000" stroke-miterlimit="10" pointer-events="none"/><path d="M 40 30 L 40 160" fill="none" stroke="#000000" stroke-miterlimit="10" pointer-events="none"/><g fill="#000000" font-family="Helvetica" font-weight="bold" pointer-events="none" text-anchor="middle" font-size="12px"><text x="89.5" y="19.5">user</text></g><path d="M 0 30 M 180 30 M 180 60 L 0 60" fill="none" stroke="#000000" stroke-miterlimit="10" pointer-events="none"/><path d="M 0 30 M 40 30 M 40 60 M 0 60" fill="none" stroke="#000000" stroke-miterlimit="10" pointer-events="none"/><g fill="#000000" font-family="Helvetica" font-weight="bold" pointer-events="none" clip-path="url(#mx-clip-0-30-40-30-0)" text-anchor="middle" font-size="12px"><text x="19.5" y="49.5">PK</text></g><path d="M 40 30 M 180 30 M 180 60 M 40 60" fill="none" stroke="#000000" stroke-miterlimit="10" pointer-events="none"/><g fill="#000000" font-family="Helvetica" font-weight="bold" text-decoration="underline" pointer-events="none" clip-path="url(#mx-clip-46-30-134-30-0)" font-size="12px"><text x="47.5" y="49.5">user_id: integer</text></g><path d="M 0 60 M 180 60 M 180 90 M 0 90" fill="none" stroke="#000000" stroke-miterlimit="10" pointer-events="none"/><path d="M 0 60 M 40 60 M 40 90 M 0 90" fill="none" stroke="#000000" stroke-miterlimit="10" pointer-events="none"/><g fill="#000000" font-family="Helvetica" pointer-events="none" clip-path="url(#mx-clip-0-60-40-30-0)" text-anchor="middle" font-size="12px"><text x="19.5" y="79.5">IX1</text></g><path d="M 40 60 M 180 60 M 180 90 M 40 90" fill="none" stroke="#000000" stroke-miterlimit="10" pointer-events="none"/><g fill="#000000" font-family="Helvetica" pointer-events="none" clip-path="url(#mx-clip-46-60-134-30-0)" font-size="12px"><text x="47.5" y="79.5">created: numeric</text></g><path d="M 0 90 M 180 90 M 180 120 M 0 120" fill="none" stroke="#000000" stroke-miterlimit="10" pointer-events="none"/><path d="M 0 90 M 40 90 M 40 120 M 0 120" fill="none" stroke="#000000" stroke-miterlimit="10" pointer-events="none"/><g fill="#000000" font-family="Helvetica" pointer-events="none" clip-path="url(#mx-clip-0-90-40-30-0)" text-anchor="middle" font-size="12px"><text x="19.5" y="109.5">IX2</text></g><path d="M 40 90 M 180 90 M 180 120 M 40 120" fill="none" stroke="#000000" stroke-miterlimit="10" pointer-events="none"/><g fill="#000000" font-family="Helvetica" pointer-events="none" clip-path="url(#mx-clip-46-90-134-30-0)" font-size="12px"><text x="47.5" y="109.5">name: text</text></g><path d="M 0 120 M 180 120 M 180 150 M 0 150" fill="none" stroke="#000000" stroke-miterlimit="10" pointer-events="none"/><path d="M 0 120 M 40 120 M 40 150 M 0 150" fill="none" stroke="#000000" stroke-miterlimit="10" pointer-events="none"/><g fill="#000000" font-family="Helvetica" pointer-events="none" clip-path="url(#mx-clip-0-120-40-30-0)" text-anchor="middle" font-size="12px"><text x="19.5" y="139.5">UQ1</text></g><path d="M 40 120 M 180 120 M 180 150 M 40 150" fill="none" stroke="#000000" stroke-miterlimit="10" pointer-events="none"/><g fill="#000000" font-family="Helvetica" pointer-events="none" clip-path="url(#mx-clip-46-120-134-30-0)" font-size="12px"><text x="47.5" y="139.5">email: text</text></g><path d="M 230 300 L 230 270 L 460 270 L 460 300" fill="#ffffff" stroke="#000000" stroke-miterlimit="10" pointer-events="none"/><path d="M 230 300 L 230 490 L 460 490 L 460 300" fill="none" stroke="#000000" stroke-miterlimit="10" pointer-events="none"/><path d="M 230 300 L 460 300" fill="none" stroke="#000000" stroke-miterlimit="10" pointer-events="none"/><path d="M 270 300 L 270 490" fill="none" stroke="#000000" stroke-miterlimit="10" pointer-events="none"/><g fill="#000000" font-family="Helvetica" font-weight="bold" pointer-events="none" text-anchor="middle" font-size="12px"><text x="344.5" y="289.5">interview_question</text></g><path d="M 230 300 M 460 300 M 460 330 L 230 330" fill="none" stroke="#000000" stroke-miterlimit="10" pointer-events="none"/><path d="M 230 300 M 270 300 M 270 330 M 230 330" fill="none" stroke="#000000" stroke-miterlimit="10" pointer-events="none"/><g fill="#000000" font-family="Helvetica" font-weight="bold" pointer-events="none" clip-path="url(#mx-clip-230-300-40-30-0)" text-anchor="middle" font-size="12px"><text x="249.5" y="319.5">PK</text></g><path d="M 270 300 M 460 300 M 460 330 M 270 330" fill="none" stroke="#000000" stroke-miterlimit="10" pointer-events="none"/><g fill="#000000" font-family="Helvetica" font-weight="bold" text-decoration="underline" pointer-events="none" clip-path="url(#mx-clip-276-300-184-30-0)" font-size="12px"><text x="277.5" y="319.5">interview_question_id: integer</text></g><path d="M 230 330 M 460 330 M 460 360 M 230 360" fill="none" stroke="#000000" stroke-miterlimit="10" pointer-events="none"/><path d="M 230 330 M 270 330 M 270 360 M 230 360" fill="none" stroke="#000000" stroke-miterlimit="10" pointer-events="none"/><g fill="#000000" font-family="Helvetica" pointer-events="none" clip-path="url(#mx-clip-230-330-40-30-0)" text-anchor="middle" font-size="12px"><text x="249.5" y="349.5">IX1</text></g><path d="M 270 330 M 460 330 M 460 360 M 270 360" fill="none" stroke="#000000" stroke-miterlimit="10" pointer-events="none"/><g fill="#000000" font-family="Helvetica" pointer-events="none" clip-path="url(#mx-clip-276-330-184-30-0)" font-size="12px"><text x="277.5" y="349.5">created: numeric</text></g><path d="M 230 360 M 460 360 M 460 390 M 230 390" fill="none" stroke="#000000" stroke-miterlimit="10" pointer-events="none"/><path d="M 230 360 M 270 360 M 270 390 M 230 390" fill="none" stroke="#000000" stroke-miterlimit="10" pointer-events="none"/><g fill="#000000" font-family="Helvetica" pointer-events="none" clip-path="url(#mx-clip-230-360-40-30-0)" text-anchor="middle" font-size="12px"><text x="249.5" y="379.5">UQ1</text></g><path d="M 270 360 M 460 360 M 460 390 M 270 390" fill="none" stroke="#000000" stroke-miterlimit="10" pointer-events="none"/><g fill="#000000" font-family="Helvetica" pointer-events="none" clip-path="url(#mx-clip-276-360-184-30-0)" font-size="12px"><text x="277.5" y="379.5">question: text</text></g><path d="M 230 390 M 460 390 M 460 420 M 230 420" fill="none" stroke="#000000" stroke-miterlimit="10" pointer-events="none"/><path d="M 230 390 M 270 390 M 270 420 M 230 420" fill="none" stroke="#000000" stroke-miterlimit="10" pointer-events="none"/><path d="M 270 390 M 460 390 M 460 420 M 270 420" fill="none" stroke="#000000" stroke-miterlimit="10" pointer-events="none"/><g fill="#000000" font-family="Helvetica" pointer-events="none" clip-path="url(#mx-clip-276-390-184-30-0)" font-size="12px"><text x="277.5" y="409.5">answer: text</text></g><path d="M 230 420 M 460 420 M 460 450 M 230 450" fill="none" stroke="#000000" stroke-miterlimit="10" pointer-events="none"/><path d="M 230 420 M 270 420 M 270 450 M 230 450" fill="none" stroke="#000000" stroke-miterlimit="10" pointer-events="none"/><g fill="#000000" font-family="Helvetica" pointer-events="none" clip-path="url(#mx-clip-230-420-40-30-0)" text-anchor="middle" font-size="12px"><text x="249.5" y="439.5">FK1</text></g><path d="M 270 420 M 460 420 M 460 450 M 270 450" fill="none" stroke="#000000" stroke-miterlimit="10" pointer-events="none"/><g fill="#000000" font-family="Helvetica" pointer-events="none" clip-path="url(#mx-clip-276-420-184-30-0)" font-size="12px"><text x="277.5" y="439.5">user_id: integer</text></g><path d="M 230 450 M 460 450 M 460 480 M 230 480" fill="none" stroke="#000000" stroke-miterlimit="10" pointer-events="none"/><path d="M 230 450 M 270 450 M 270 480 M 230 480" fill="none" stroke="#000000" stroke-miterlimit="10" pointer-events="none"/><path d="M 270 450 M 460 450 M 460 480 M 270 480" fill="none" stroke="#000000" stroke-miterlimit="10" pointer-events="none"/><g fill="#000000" font-family="Helvetica" pointer-events="none" clip-path="url(#mx-clip-276-450-184-30-0)" font-size="12px"><text x="277.5" y="469.5">source: text</text></g><path d="M 230 435 L 200 435 L 200 240 L 210 240 L 210 45 L 180 45" fill="none" stroke="#000000" stroke-miterlimit="10" pointer-events="none"/><path d="M 222 439 L 222 431 M 230 431 L 222 435 L 230 439" fill="none" stroke="#000000" stroke-miterlimit="10" pointer-events="none"/><path d="M 188 41 L 188 49 M 180 49 L 188 45 L 180 41" fill="none" stroke="#000000" stroke-miterlimit="10" pointer-events="none"/><path d="M 610 530 L 610 500 L 790 500 L 790 530" fill="#ffffff" stroke="#000000" stroke-miterlimit="10" pointer-events="none"/><path d="M 610 530 L 610 630 L 790 630 L 790 530" fill="none" stroke="#000000" stroke-miterlimit="10" pointer-events="none"/><path d="M 610 530 L 790 530" fill="none" stroke="#000000" stroke-miterlimit="10" pointer-events="none"/><path d="M 650 530 L 650 630" fill="none" stroke="#000000" stroke-miterlimit="10" pointer-events="none"/><g fill="#000000" font-family="Helvetica" font-weight="bold" pointer-events="none" text-anchor="middle" font-size="12px"><text x="699.5" y="519.5">category</text></g><path d="M 610 530 M 790 530 M 790 560 L 610 560" fill="none" stroke="#000000" stroke-miterlimit="10" pointer-events="none"/><path d="M 610 530 M 650 530 M 650 560 M 610 560" fill="none" stroke="#000000" stroke-miterlimit="10" pointer-events="none"/><g fill="#000000" font-family="Helvetica" font-weight="bold" pointer-events="none" clip-path="url(#mx-clip-610-530-40-30-0)" text-anchor="middle" font-size="12px"><text x="629.5" y="549.5">PK</text></g><path d="M 650 530 M 790 530 M 790 560 M 650 560" fill="none" stroke="#000000" stroke-miterlimit="10" pointer-events="none"/><g fill="#000000" font-family="Helvetica" font-weight="bold" text-decoration="underline" pointer-events="none" clip-path="url(#mx-clip-656-530-134-30-0)" font-size="12px"><text x="657.5" y="549.5">category_id: integer</text></g><path d="M 610 560 M 790 560 M 790 590 M 610 590" fill="none" stroke="#000000" stroke-miterlimit="10" pointer-events="none"/><path d="M 610 560 M 650 560 M 650 590 M 610 590" fill="none" stroke="#000000" stroke-miterlimit="10" pointer-events="none"/><g fill="#000000" font-family="Helvetica" pointer-events="none" clip-path="url(#mx-clip-610-560-40-30-0)" text-anchor="middle" font-size="12px"><text x="629.5" y="579.5">IX1</text></g><path d="M 650 560 M 790 560 M 790 590 M 650 590" fill="none" stroke="#000000" stroke-miterlimit="10" pointer-events="none"/><g fill="#000000" font-family="Helvetica" pointer-events="none" clip-path="url(#mx-clip-656-560-134-30-0)" font-size="12px"><text x="657.5" y="579.5">created: numeric</text></g><path d="M 610 590 M 790 590 M 790 620 M 610 620" fill="none" stroke="#000000" stroke-miterlimit="10" pointer-events="none"/><path d="M 610 590 M 650 590 M 650 620 M 610 620" fill="none" stroke="#000000" stroke-miterlimit="10" pointer-events="none"/><g fill="#000000" font-family="Helvetica" pointer-events="none" clip-path="url(#mx-clip-610-590-40-30-0)" text-anchor="middle" font-size="12px"><text x="629.5" y="609.5">IX2</text></g><path d="M 650 590 M 790 590 M 790 620 M 650 620" fill="none" stroke="#000000" stroke-miterlimit="10" pointer-events="none"/><g fill="#000000" font-family="Helvetica" pointer-events="none" clip-path="url(#mx-clip-656-590-134-30-0)" font-size="12px"><text x="657.5" y="609.5">name: text</text></g><path d="M 740 285 L 750 285 L 750 415 L 600 415 L 600 545 L 610 545" fill="none" stroke="#000000" stroke-miterlimit="10" pointer-events="none"/><path d="M 748 281 L 748 289 M 740 289 L 748 285 L 740 281" fill="none" stroke="#000000" stroke-miterlimit="10" pointer-events="none"/><path d="M 602 549 L 602 541 M 610 541 L 602 545 L 610 549" fill="none" stroke="#000000" stroke-miterlimit="10" pointer-events="none"/><path d="M 520 210 L 520 180 L 740 180 L 740 210" fill="#ffffff" stroke="#000000" stroke-miterlimit="10" pointer-events="none"/><path d="M 520 210 L 520 310 L 740 310 L 740 210" fill="none" stroke="#000000" stroke-miterlimit="10" pointer-events="none"/><path d="M 520 210 L 740 210" fill="none" stroke="#000000" stroke-miterlimit="10" pointer-events="none"/><path d="M 560 210 L 560 310" fill="none" stroke="#000000" stroke-miterlimit="10" pointer-events="none"/><g fill="#000000" font-family="Helvetica" font-weight="bold" pointer-events="none" text-anchor="middle" font-size="12px"><text x="629.5" y="199.5">interview_questions_categories</text></g><path d="M 520 210 M 740 210 M 740 240 L 520 240" fill="none" stroke="#000000" stroke-miterlimit="10" pointer-events="none"/><path d="M 520 210 M 560 210 M 560 240 M 520 240" fill="none" stroke="#000000" stroke-miterlimit="10" pointer-events="none"/><g fill="#000000" font-family="Helvetica" font-weight="bold" pointer-events="none" clip-path="url(#mx-clip-520-210-40-30-0)" text-anchor="middle" font-size="12px"><text x="539.5" y="229.5">PK</text></g><path d="M 560 210 M 740 210 M 740 240 M 560 240" fill="none" stroke="#000000" stroke-miterlimit="10" pointer-events="none"/><g fill="#000000" font-family="Helvetica" font-weight="bold" text-decoration="underline" pointer-events="none" clip-path="url(#mx-clip-566-210-174-30-0)" font-size="12px"><text x="567.5" y="229.5">id: integer</text></g><path d="M 520 240 M 740 240 M 740 270 M 520 270" fill="none" stroke="#000000" stroke-miterlimit="10" pointer-events="none"/><path d="M 520 240 M 560 240 M 560 270 M 520 270" fill="none" stroke="#000000" stroke-miterlimit="10" pointer-events="none"/><g fill="#000000" font-family="Helvetica" pointer-events="none" clip-path="url(#mx-clip-520-240-40-30-0)" text-anchor="middle" font-size="12px"><text x="539.5" y="259.5">FK1</text></g><path d="M 560 240 M 740 240 M 740 270 M 560 270" fill="none" stroke="#000000" stroke-miterlimit="10" pointer-events="none"/><g fill="#000000" font-family="Helvetica" pointer-events="none" clip-path="url(#mx-clip-566-240-174-30-0)" font-size="12px"><text x="567.5" y="259.5">interview_question_id: integer</text></g><path d="M 520 270 M 740 270 M 740 300 M 520 300" fill="none" stroke="#000000" stroke-miterlimit="10" pointer-events="none"/><path d="M 520 270 M 560 270 M 560 300 M 520 300" fill="none" stroke="#000000" stroke-miterlimit="10" pointer-events="none"/><g fill="#000000" font-family="Helvetica" pointer-events="none" clip-path="url(#mx-clip-520-270-40-30-0)" text-anchor="middle" font-size="12px"><text x="539.5" y="289.5">FK2</text></g><path d="M 560 270 M 740 270 M 740 300 M 560 300" fill="none" stroke="#000000" stroke-miterlimit="10" pointer-events="none"/><g fill="#000000" font-family="Helvetica" pointer-events="none" clip-path="url(#mx-clip-566-270-174-30-0)" font-size="12px"><text x="567.5" y="289.5">category_id: integer</text></g><path d="M 460 315 L 490 315 L 490 285 L 490 255 L 520 255" fill="none" stroke="#000000" stroke-miterlimit="10" pointer-events="none"/><path d="M 468 311 L 468 319 M 460 319 L 468 315 L 460 311" fill="none" stroke="#000000" stroke-miterlimit="10" pointer-events="none"/><path d="M 512 259 L 512 251 M 520 251 L 512 255 L 520 259" fill="none" stroke="#000000" stroke-miterlimit="10" pointer-events="none"/></g></svg>